HIERARCHY
ROOT hip
{
	OFFSET 0.000000 0.000000 0.000000 
	CHANNELS 6 Xposition Yposition Zposition Zrotation Xrotation Yrotation
	JOINT abdomen
	{
		OFFSET -0.007523 3.002120 0.001058 
		CHANNELS 3 Zrotation Xrotation Yrotation
		JOINT chest
		{
			OFFSET 0.001864 10.699600 -0.000868 
			CHANNELS 3 Zrotation Xrotation Yrotation
			JOINT neck
			{
				OFFSET -0.000482 12.028400 0.000673 
				CHANNELS 3 Zrotation Xrotation Yrotation
				JOINT head
				{
					OFFSET 0.000000 2.324280 0.001851 
					CHANNELS 3 Zrotation Xrotation Yrotation
					End Site
					{
						OFFSET 0.000000 8.337540 -0.000011 
					}
				}
			}
			JOINT lCollar
			{
				OFFSET 4.142280 8.713310 -1.748190 
				CHANNELS 3 Zrotation Xrotation Yrotation
				JOINT lShldr
				{
					OFFSET 3.198490 0.000000 0.000000 
					CHANNELS 3 Zrotation Xrotation Yrotation
					JOINT lForeArm
					{
						OFFSET 11.267400 0.131802 0.138380 
						CHANNELS 3 Zrotation Xrotation Yrotation
						JOINT lHand
						{
							OFFSET 10.433800 -0.078966 2.117880 
							CHANNELS 3 Zrotation Xrotation Yrotation
							End Site
							{
								OFFSET 5.536070 0.395143 1.598850 
							}
						}
					}
				}
			}
			JOINT rCollar
			{
				OFFSET -4.142280 8.713310 -1.748190 
				CHANNELS 3 Zrotation Xrotation Yrotation
				JOINT rShldr
				{
					OFFSET -3.198490 0.000014 0.000000 
					CHANNELS 3 Zrotation Xrotation Yrotation
					JOINT rForeArm
					{
						OFFSET -11.267400 0.131799 0.138381 
						CHANNELS 3 Zrotation Xrotation Yrotation
						JOINT rHand
						{
							OFFSET -10.433800 -0.078969 2.117920 
							CHANNELS 3 Zrotation Xrotation Yrotation
							End Site
							{
								OFFSET -5.536060 0.395142 1.598870 
							}
						}
					}
				}
			}
		}
	}
	JOINT lThigh
	{
		OFFSET 4.319220 0.000000 0.000000 
		CHANNELS 3 Zrotation Xrotation Yrotation
		JOINT lShin
		{
			OFFSET -1.084330 -20.014099 1.652440 
			CHANNELS 3 Zrotation Xrotation Yrotation
			JOINT lFoot
			{
				OFFSET -1.036480 -19.130800 -1.652470 
				CHANNELS 3 Zrotation Xrotation Yrotation
				JOINT lToe
				{
					OFFSET -0.170343 -2.377870 5.941490 
					CHANNELS 3 Zrotation Xrotation Yrotation
					End Site
					{
						OFFSET 0.000000 0.000000 2.702950 
					}
				}
			}
		}
	}
	JOINT rThigh
	{
		OFFSET -4.319220 0.000000 0.000000 
		CHANNELS 3 Zrotation Xrotation Yrotation
		JOINT rShin
		{
			OFFSET 1.084340 -20.014099 1.652410 
			CHANNELS 3 Zrotation Xrotation Yrotation
			JOINT rFoot
			{
				OFFSET 1.036470 -19.130800 -1.652420 
				CHANNELS 3 Zrotation Xrotation Yrotation
				JOINT rToe
				{
					OFFSET -0.020813 -2.208670 6.008370 
					CHANNELS 3 Zrotation Xrotation Yrotation
					End Site
					{
						OFFSET 0.000000 0.000000 2.702950 
					}
				}
			}
		}
	}
}
MOTION
Frames: 15
Frame Time: 0.033333
0.000000 36.931400 0.000000 -0.293127 -1.894500 -2.060520 -0.000007 -0.000000 0.000004 1.109090 9.539250 -14.246300 -3.467050 0.662847 17.764200 -0.954912 -15.994000 -0.145946 -2.000750 -0.069533 1.989760 -75.484802 -11.838700 -18.518900 -3.078240 0.020338 -33.805000 -18.075199 17.766500 5.363120 1.990940 -0.069530 -1.999540 75.847702 1.809900 20.448099 3.289660 0.213990 36.639099 18.889799 10.075300 -5.637340 12.284700 -22.620100 19.076401 2.074150 53.149399 -4.145400 -0.000001 -0.000002 0.000001 -3.452940 -25.503799 -6.483680 -8.453080 -17.368601 -10.777600 -1.977400 52.327099 4.023660 0.000000 -0.000002 0.000001 1.162440 -30.470600 -0.232103 
0.000000 33.117401 0.000000 -0.200608 -1.908870 -1.766410 -0.000007 -0.000001 0.000007 2.348780 15.914900 -14.591300 -2.672580 -7.207230 17.461300 -0.955966 -15.993700 -0.148614 -2.000760 -0.069531 1.989750 -76.305199 -12.788700 -41.907101 -4.644360 2.217520 -60.700001 -17.737801 18.511400 6.544850 1.990950 -0.069541 -1.999540 77.176399 -2.550060 38.651001 4.729870 2.441860 63.069901 18.401300 10.774900 -6.783560 16.849701 -32.821400 23.746700 6.663960 71.400299 -9.264250 0.000000 0.000002 -0.000001 -2.341610 -32.780201 -7.839350 -11.699100 -27.768999 -13.709100 -6.826150 71.710899 9.435050 -0.000000 -0.000002 0.000001 1.060550 -39.297001 0.460848 
0.000000 29.885700 0.000000 -0.102753 -1.923200 -1.450810 -0.000003 0.000000 0.000005 3.377830 20.996099 -14.984300 -1.914030 -13.971300 17.389999 -0.954307 -15.994200 -0.147766 -2.000760 -0.069538 1.989750 -76.726402 -13.531400 -60.648102 -5.068530 4.389750 -82.693703 -17.423599 19.190599 7.708460 1.990970 -0.069542 -1.999530 79.161903 -5.726540 53.269100 5.064990 4.596800 84.741203 17.930300 11.426100 -7.903350 21.033899 -41.304100 27.718201 29.003300 84.157799 -31.970400 -0.000001 0.000002 0.000000 -1.006180 -36.969898 -7.520050 -14.743200 -36.206902 -16.252199 -37.689800 85.249802 40.693401 -0.000003 0.000000 0.000000 0.732554 -45.085098 0.317302 
0.000000 28.076599 0.000000 -0.001874 -1.937530 -1.122780 0.000003 0.000000 0.000003 3.843080 23.400900 -15.222600 -1.234280 -18.110701 17.539301 -0.954770 -15.994000 -0.144253 -2.000740 -0.069542 1.989760 -76.600899 -14.353800 -70.009201 -4.934800 5.628720 -95.049599 -17.127600 19.814301 8.850230 1.990990 -0.069550 -1.999530 79.920502 -7.446130 60.417400 4.888470 5.823550 97.033501 17.473900 12.036300 -9.000630 23.429399 -46.059399 29.883101 112.026001 86.574402 -115.166000 0.000001 -0.000009 0.000001 -0.227943 -38.418301 -6.870960 -16.474400 -40.741699 -17.647900 -134.662994 85.383598 137.856995 -0.000001 0.000000 0.000001 0.320012 -47.549099 -0.350769 
0.000000 28.737900 0.000000 0.098410 -1.951860 -0.797175 0.000024 0.000000 0.000002 3.373530 21.756701 -15.103300 -0.746486 -18.028700 17.821699 -0.954930 -15.994000 -0.146556 -2.000750 -0.069540 1.989760 -75.722702 -15.320100 -65.512199 -4.969770 5.456950 -93.313499 -16.843000 20.411200 9.971050 1.990980 -0.069542 -1.999530 77.744400 -7.576580 56.310902 4.922680 5.682940 95.599701 17.029200 12.627800 -10.085700 22.534800 -44.794498 29.142300 73.669098 86.814301 -76.750702 0.000000 0.000000 -0.000003 -0.403173 -37.712700 -7.393350 -15.800400 -39.508301 -17.213900 -109.154999 86.648804 112.290001 0.000001 -0.000003 0.000000 -0.025958 -46.363701 -0.945265 
0.000000 35.187302 0.000000 0.205286 -1.966180 -0.451020 -0.000007 0.000003 0.000169 1.820580 15.297400 -14.690200 -0.579841 -12.732900 18.119499 -0.954831 -15.993900 -0.143353 -2.000740 -0.069535 1.989760 -73.768898 -13.715300 -47.627899 -5.053760 3.979370 -78.634102 -16.572500 20.963400 11.084600 1.990950 -0.069544 -1.999530 74.979500 -5.569450 40.929699 5.067380 4.276290 81.571800 16.612400 13.185100 -11.162900 16.346800 -34.629501 23.949800 5.909230 69.792397 -8.464150 -0.000001 0.000000 0.000004 -1.709620 -24.806801 -9.054170 -13.178500 -33.315601 -14.919400 -9.503520 75.645798 12.223100 -0.000003 0.000005 0.000003 2.851610 -29.726801 0.366827 
0.000000 42.428902 0.000000 0.312768 -1.980400 -0.106271 0.000009 -0.000010 -0.000046 -0.077006 6.659720 -14.410000 -0.675515 -4.769560 18.383200 -0.954921 -15.993900 -0.144801 -2.000760 -0.069543 1.989760 -71.448700 -11.421300 -22.503500 -4.468950 1.826480 -56.468498 -16.319901 21.487801 12.198200 1.990970 -0.069542 -1.999540 71.689102 -1.096550 19.963600 4.627590 2.176540 60.262699 16.205700 13.710500 -12.224700 10.406800 -23.327900 17.329201 1.515970 47.774502 -3.422390 -0.000000 0.000002 0.000001 -3.412150 -4.463460 -7.217730 -9.536400 -22.681900 -10.917900 -1.865870 51.329300 3.881770 -0.000000 -0.000000 0.000000 5.967350 -5.358700 -0.348042 
0.000000 48.684898 0.000000 0.421647 -1.995010 0.238603 0.000004 0.000005 -0.003872 -1.887360 -1.935320 -14.408400 -0.972246 3.747470 18.623600 -0.954929 -15.994000 -0.147660 -2.000810 -0.069551 1.989760 -68.708801 -9.948580 4.682140 -2.873240 -0.150213 -31.167900 -15.948200 23.105499 13.634100 1.990990 -0.069545 -1.999530 69.617500 5.373070 -2.034380 3.237580 0.164487 35.928902 15.817200 14.155600 -13.257400 6.074600 -11.975400 10.420100 0.332264 25.402700 -1.474320 0.000000 -0.000001 0.000000 -6.791630 19.438499 -1.367770 -6.460660 -9.278860 -7.045200 -0.275038 23.273399 1.335300 0.000000 0.000000 0.000000 8.961280 21.492800 -3.190380 
0.000000 53.512600 0.000000 0.536653 -2.009640 0.598754 0.000011 0.000010 -0.017090 -3.200130 -8.070570 -14.575700 -1.392590 10.499000 18.835199 -0.955261 -15.994000 -0.148050 -2.000770 -0.069542 1.989760 -63.128601 -12.356000 28.991699 -0.723567 -1.220460 -7.226040 -15.179100 29.555599 16.502501 1.990950 -0.069540 -1.999530 69.750099 11.500900 -20.845900 1.279940 -1.046330 13.002000 15.466300 14.453800 -14.246600 3.867800 1.943670 5.074830 0.000634 -1.147910 0.062200 -0.000000 -0.000000 0.000001 -13.433900 42.648300 8.754970 -4.667790 4.001270 -5.340190 -0.000232 -0.685859 -0.037162 -0.000000 0.000002 0.000000 10.133000 46.407902 -4.879240 
0.000000 58.071701 0.000000 0.645497 -2.017420 0.955080 0.000002 -0.000017 -0.024276 -3.262320 -8.369550 -14.582500 -1.954940 12.671500 18.985001 -0.954176 -15.994400 -0.167088 -2.000750 -0.069529 1.989760 169.065994 45.570499 110.633003 0.602026 -1.403220 6.060590 -102.622002 -58.573101 -82.072998 1.990950 -0.069532 -1.999530 71.185799 15.971500 -30.734501 -0.213913 -1.381990 -2.208860 15.411700 12.893100 -14.739700 4.335830 -3.151760 6.029120 0.091801 13.767700 -0.760627 0.000000 0.000000 -0.000000 -11.600600 39.258400 5.454680 -2.378270 9.536610 -3.984610 -0.021507 6.724990 0.366035 -0.000000 0.000002 -0.000001 14.236600 42.272900 -8.469080 
0.000000 62.249199 0.000000 0.752624 -2.027040 1.289680 0.000004 0.000027 -0.016897 -1.882060 -1.908050 -14.391400 -3.220700 11.611000 18.908300 -0.951076 -15.994800 -0.127983 -2.000750 -0.069539 1.989760 153.585007 41.457901 125.763000 0.923384 -1.401060 9.245080 -124.750999 -55.233101 -104.018997 1.990930 -0.069533 -1.999530 70.049103 14.960400 -26.814899 -0.543411 -1.401700 -5.479780 15.079200 13.096200 -15.708600 4.997560 -12.230600 6.799780 0.670699 34.678001 -2.148180 0.000000 -0.000000 0.000001 -8.996060 32.640598 1.847510 -2.791900 3.419400 -3.756630 -0.255053 22.467800 1.283870 -0.000000 -0.000002 0.000000 15.952500 37.682400 -7.785790 
0.000000 65.616798 0.000000 0.860249 -2.041830 1.603630 0.000006 -0.000006 0.000708 0.710277 10.334200 -14.458900 -5.221060 8.532640 18.365101 -0.958275 -15.993500 -0.138051 -2.000740 -0.069542 1.989760 -68.324303 -15.227200 18.569901 0.233232 -1.383660 2.400770 -15.074200 26.937700 18.574100 1.990920 -0.069536 -1.999540 67.738602 8.053210 -9.471650 0.354145 -1.303140 3.475310 14.422100 15.745900 -17.325100 4.381260 -19.119400 4.592960 1.498500 47.577202 -3.398760 -0.000001 0.000000 0.000000 -9.896660 32.023701 2.722670 -6.647230 -12.145600 -6.096220 -0.835669 38.002800 2.426270 -0.000000 -0.000000 0.000001 13.472600 40.625702 -2.576130 
0.000000 67.122803 0.000000 0.968436 -2.048790 1.932000 -0.000004 -0.000003 0.000369 3.937940 24.333599 -15.283100 -7.247490 4.853330 16.995300 -0.962409 -15.994200 -0.115837 -2.000710 -0.069542 1.989780 -73.355003 -18.888800 -7.665450 -1.520420 -0.951363 -15.562300 -14.937300 26.958099 19.559999 1.990950 -0.069535 -1.999540 68.423897 2.934840 15.393400 1.837540 -0.806474 19.014299 13.981200 17.048401 -18.583900 2.890040 -28.915001 1.816590 4.521930 65.932999 -6.967300 -0.000000 0.000000 -0.000000 -11.311300 28.127199 3.596080 -10.772300 -24.158800 -11.777700 -4.108960 64.465698 6.512220 0.000000 -0.000000 0.000000 9.788000 28.568701 3.929410 
0.000000 65.457901 0.000000 1.072050 -2.055670 2.244870 0.000007 -0.000000 0.000002 6.883540 34.984200 -16.624701 -8.572090 1.808010 15.535700 -0.959723 -15.992800 -0.154560 -2.000700 -0.069533 1.989790 -77.287498 -18.585199 -32.539101 -3.329510 0.252725 -37.188400 -14.862100 25.732901 20.155399 1.990990 -0.069533 -1.999510 69.841797 0.785676 39.422798 3.357010 0.279870 37.570202 13.608800 17.983999 -19.733900 0.591808 -40.402599 -0.477826 117.722000 86.388199 -120.873001 0.000000 0.000000 -0.000000 -11.781700 17.468399 2.718960 -15.832100 -34.492500 -16.577700 -154.561005 81.816399 157.867996 0.000001 0.000002 0.000000 7.722380 11.510900 8.101980 
0.000000 63.540699 0.000000 1.166570 -2.062740 2.540620 -0.000003 0.000000 0.000002 9.107510 41.523300 -18.004999 -9.251810 -0.450512 14.524200 -0.947546 -15.994100 -0.158086 -2.000710 -0.069521 1.989780 -79.820702 -18.909901 -54.226700 -4.565230 2.031480 -58.704399 -14.692100 26.441799 21.327200 1.991010 -0.069528 -1.999510 70.442703 0.216972 60.368301 4.463710 1.815890 56.351601 13.268800 18.745300 -20.836399 -1.299480 -47.894600 -1.986480 168.005997 69.516701 -171.660995 -0.000001 0.000002 0.000000 -11.809000 8.181690 1.369260 -18.531200 -39.081001 -18.581499 -168.703003 67.695999 172.410004 0.000000 0.000002 -0.000000 7.573190 4.540260 9.092720 
